<svg width="1850" height="1040" viewBox="0 0 1850 1040" fill="none" xmlns="http://www.w3.org/2000/svg"
    xmlns:xlink="http://www.w3.org/1999/xlink">
    <rect width="1850" height="1040" fill="#7A7777" fill-opacity="0.16" />
    <rect width="1850" height="1040" fill="url(#pattern0)" />
    <path
        d="M1544.5 256L1546 236L1465.5 232.5V224.5H1455V232.5H1448.5V226H1436.5V230.5H1432.5V226H1419V230.5L1299.5 226V216H1288.5V189H1224H1172.5V209H1160H1152V220.5H1147.5V209H1129H1121V219H1096V206.5H1078.5H1072V224.5H1051V216H1048V206.5H1040.5V224.5H1032V216H1021.5V224.5H1012V217.5H1001.5V224.5H906.5V706L1044 774V795L1048 798.5L1072 790L1106.5 806.5L1322 910L1372 874.5H1375.5L1503 784.5V746V732L1501.5 730.5V702.5L1508 700V687.5H1503L1505.5 648.5L1511 647.5L1512.5 626H1509.5L1511 596L1515.5 594L1516.5 581L1512.5 581.5L1515.5 541.5L1522 540V518.5H1517.5L1519.5 487.5L1526.5 486V471.5H1522L1524 430.5L1531 429.5V417L1528.5 415L1531 373.5H1536L1537.5 350H1533L1535.5 316.5H1540V301.5H1537.5L1540 257.5L1544.5 256Z"
        fill="#1AEBDF" fill-opacity="0.3" stroke="#00E0FF" stroke-width="2" />
    <path
        d="M893 712L907.5 705.5V667.5L905.5 664V224.5L957 225.5H1001.5V216.5H1011.5V224.5H1021.5V215.5H1032V223.5H1040V206.5H1048L1048.5 215.5H1051L1052.5 222.5V225.5H1066.5V222.5H1072V206L1024.5 205V197.5H1006.5H1000.5V205H995V197.5H969V202.5H951V173H877H870L863.5 166L854 174.5H847L846.5 199.5H811V194H796.5H687H648L612.5 192.5L625 450.5L627.5 517L630 569L731.5 629V646.5L749.5 642L764 648.5L761 657L767 660.5L779.5 654L893 712Z"
        fill="#25DCE0" fill-opacity="0.3" stroke="#00E0FF" stroke-width="2" />
    <g filter="url(#filter0_d_236_4)">
        <path
            d="M535 460L540.5 578L579 570L588.5 575.5L592 574.5V568L628.5 559.5L626.5 510L623 435L619.5 352L616.5 255H610V250.5H615L614 219H608.5V205.5H613.5V193.5L764.5 192.5V185.5H748.5H744H720.5H716.5H697.5V189.5H679.5V166.5L604.5 166H585V185.5H580L577.5 184.5H564.5V190.5H550.5V184.5H535H521V190.5H505V184.5H490V185.5H475.5V191.5H444H434.5V210H444L499 214H520L524.5 291L529.5 385L535 460Z"
            fill="#19D1BB" fill-opacity="0.3" shape-rendering="crispEdges" />
        <path
            d="M535 460L540.5 578L579 570L588.5 575.5L592 574.5V568L628.5 559.5L626.5 510L623 435L619.5 352L616.5 255H610V250.5H615L614 219H608.5V205.5H613.5V193.5L764.5 192.5V185.5H748.5H744H720.5H716.5H697.5V189.5H679.5V166.5L604.5 166H585V185.5H580L577.5 184.5H564.5V190.5H550.5V184.5H535H521V190.5H505V184.5H490V185.5H475.5V191.5H444H434.5V210H444L499 214H520L524.5 291L529.5 385L535 460Z"
            stroke="#00E0FF" stroke-width="2" shape-rendering="crispEdges" />
    </g>
    <path
        d="M297.5 663.5L435 633V619L541.5 593L538.5 547.5L534.5 476.5L529.5 393.5L522 264L521 213.5H485L444 209H434L432.5 186H382H353V205.5H323V212H298.5V209H282.5V207.5H270.5V212.5H262.5V204.5L249 204H237.5V213.5H192L196 267.5H198.5L200.5 290H198.5L199.5 303L202.5 305L205.5 330.5H203.5V344.5L207.5 348L212.5 398L209.5 401.5V415.5L215.5 418.5L217.5 443L212.5 441.5V452L219 456.5L221 474H217.5V487.5L221 492.5L223.5 515H221V524L226 528L228.5 594L297.5 663.5Z"
        fill="#41D4AC" fill-opacity="0.3" stroke="#00E0FF" stroke-width="2" />
    <defs>
        <pattern id="pattern0" patternContentUnits="objectBoundingBox" width="1" height="1">
            <use xlink:href="#image0_236_4" transform="scale(0.000540541 0.000961538)" />
        </pattern>
        <filter id="filter0_d_236_4" x="429.5" y="165" width="340" height="422.218" filterUnits="userSpaceOnUse"
            color-interpolation-filters="sRGB">
            <feFlood flood-opacity="0" result="BackgroundImageFix" />
            <feColorMatrix in="SourceAlpha" type="matrix" values="0 0 0 0 0 0 0 0 0 0 0 0 0 0 0 0 0 0 127 0"
                result="hardAlpha" />
            <feOffset dy="4" />
            <feGaussianBlur stdDeviation="2" />
            <feComposite in2="hardAlpha" operator="out" />
            <feColorMatrix type="matrix" values="0 0 0 0 0 0 0 0 0 0 0 0 0 0 0 0 0 0 0.25 0" />
            <feBlend mode="normal" in2="BackgroundImageFix" result="effect1_dropShadow_236_4" />
            <feBlend mode="normal" in="SourceGraphic" in2="effect1_dropShadow_236_4" result="shape" />
        </filter>
        <image id="image0_236_4" width="1850" height="1040" xlink:href="assets/img/photo-build.png"/>
    </defs>
</svg>